<?xml version="1.0" encoding="UTF-8"?>
<!DOCTYPE svg PUBLIC "-//W3C//DTD SVG 1.1//EN" "http://www.w3.org/Graphics/SVG/1.1/DTD/svg11.dtd">
<!-- Creator: CorelDRAW 2019 (64 Bit) -->
<svg xmlns="http://www.w3.org/2000/svg" xml:space="preserve" width="20.2229mm" height="20.8092mm" version="1.1" style="shape-rendering:geometricPrecision; text-rendering:geometricPrecision; image-rendering:optimizeQuality; fill-rule:evenodd; clip-rule:evenodd"
viewBox="0 0 121.99 125.53"
 xmlns:xlink="http://www.w3.org/1999/xlink">
 <defs>
  <style type="text/css">
   <![CDATA[
    .str0 {stroke:#999999;stroke-width:0.72;stroke-miterlimit:22.9256}
    .str1 {stroke:#999999;stroke-width:1.21;stroke-miterlimit:22.9256}
    .fil0 {fill:none}
    .fil1 {fill:#999999}
   ]]>
  </style>
 </defs>
 <g id="Camada_x0020_1">
  <metadata id="CorelCorpID_0Corel-Layer"/>
  <path class="fil0 str0" d="M43.58 4.07l30.74 21.74m4.79 2.67l31.56 12.96m-53.2 9.82l17.49 -21.6m1 0.45l-9.2 31.91m1.95 3.14l33.5 6.07m0.52 1.83l-38.71 22.74m0.09 2.57l27.45 16.15m11.8 -45.33l-25.25 -39.49m-3.79 -0.66l-43.26 27.92m0.46 2l31.74 5.27m0.91 -1.63l-6.57 -7.55m-3.62 -4.11l-13.45 -15.13m-35.49 46.37l30.8 5.33m4.82 -1.32l23.22 -19.73m1.76 0.95l-3.4 27.07m-3.12 1.52l-17.99 -7.02m0.16 -0.63l37.82 5.19m0.39 -1.29l-48.43 -32.17m24.01 60.48l5.97 -20.67m-2.07 -1.86l-38.69 12.74m-3.88 -1.59l-12.84 -25m0.81 -4.28l22.27 -19.61m0.37 -3.87l-19.12 -23.95m28.82 57.59l-17.23 19.51m-1.27 -0.63l9.89 -47.71m1.45 -0.03l8.1 24.19m2.11 0.15l14.81 -29.68m-1.78 -2.07l-21.33 4.18m-0.94 2.71l29.47 34.27m4.31 1.76l14.87 -2.3m1.37 -3.15l-13.26 -24.14m0.94 -0.85l49.15 33.9"/>
  <path class="fil1 str1" d="M28.8 56.8c0.95,0 1.72,0.77 1.72,1.72 0,0.95 -0.77,1.72 -1.72,1.72 -0.95,0 -1.72,-0.77 -1.72,-1.72 0,-0.95 0.77,-1.72 1.72,-1.72z"/>
  <path class="fil1 str1" d="M6.3 28.5c0.95,0 1.73,0.77 1.73,1.72 0,0.95 -0.77,1.72 -1.73,1.72 -0.95,0 -1.72,-0.77 -1.72,-1.72 0,-0.95 0.77,-1.72 1.72,-1.72z"/>
  <path class="fil1 str1" d="M41.44 0.6c0.95,0 1.72,0.77 1.72,1.72 0,0.95 -0.77,1.72 -1.72,1.72 -0.95,0 -1.72,-0.77 -1.72,-1.72 0,-0.95 0.77,-1.72 1.72,-1.72z"/>
  <path class="fil1 str1" d="M38.7 32.02c0.95,0 1.72,0.77 1.72,1.72 0,0.95 -0.77,1.72 -1.72,1.72 -0.95,0 -1.72,-0.77 -1.72,-1.72 0,-0.95 0.77,-1.72 1.72,-1.72z"/>
  <path class="fil1 str1" d="M76.56 25.7c0.95,0 1.73,0.77 1.73,1.72 0,0.95 -0.77,1.72 -1.73,1.72 -0.95,0 -1.72,-0.77 -1.72,-1.72 0,-0.95 0.77,-1.72 1.72,-1.72z"/>
  <path class="fil1 str1" d="M113.26 40.66c0.95,0 1.72,0.77 1.72,1.72 0,0.95 -0.77,1.72 -1.72,1.72 -0.95,0 -1.72,-0.77 -1.72,-1.72 0,-0.95 0.77,-1.72 1.72,-1.72z"/>
  <path class="fil1 str1" d="M93.94 114.2c0.95,0 1.72,0.77 1.72,1.72 0,0.95 -0.77,1.72 -1.72,1.72 -0.95,0 -1.72,-0.77 -1.72,-1.72 0,-0.95 0.77,-1.72 1.72,-1.72z"/>
  <path class="fil1 str1" d="M81.88 91.95c0.95,0 1.72,0.77 1.72,1.72 0,0.95 -0.77,1.72 -1.72,1.72 -0.95,0 -1.72,-0.77 -1.72,-1.72 0,-0.95 0.77,-1.72 1.72,-1.72z"/>
  <path class="fil1 str1" d="M54.33 121.48c0.95,0 1.72,0.77 1.72,1.72 0,0.95 -0.77,1.72 -1.72,1.72 -0.95,0 -1.72,-0.77 -1.72,-1.72 0,-0.95 0.77,-1.72 1.72,-1.72z"/>
  <path class="fil1 str1" d="M119.66 100c0.95,0 1.72,0.77 1.72,1.72 0,0.95 -0.77,1.72 -1.72,1.72 -0.95,0 -1.72,-0.77 -1.72,-1.72 0,-0.95 0.77,-1.72 1.72,-1.72z"/>
  <path class="fil1 str1" d="M104.96 69.72c0.95,0 1.72,0.77 1.72,1.72 0,0.95 -0.77,1.72 -1.72,1.72 -0.95,0 -1.72,-0.77 -1.72,-1.72 0,-0.95 0.77,-1.72 1.72,-1.72z"/>
  <path class="fil1 str1" d="M55.53 51.5c0.95,0 1.72,0.77 1.72,1.72 0,0.95 -0.77,1.72 -1.72,1.72 -0.95,0 -1.72,-0.77 -1.72,-1.72 0,-0.95 0.77,-1.72 1.72,-1.72z"/>
  <path class="fil1 str1" d="M38.57 86.25c0.95,0 1.72,0.77 1.72,1.72 0,0.95 -0.77,1.72 -1.72,1.72 -0.95,0 -1.72,-0.77 -1.72,-1.72 0,-0.95 0.77,-1.72 1.72,-1.72z"/>
  <path class="fil1 str1" d="M61.63 95.45c0.95,0 1.72,0.77 1.72,1.72 0,0.95 -0.77,1.72 -1.72,1.72 -0.95,0 -1.72,-0.77 -1.72,-1.72 0,-0.95 0.77,-1.72 1.72,-1.72z"/>
  <path class="fil1 str1" d="M2.33 79.98c0.95,0 1.72,0.77 1.72,1.72 0,0.95 -0.77,1.72 -1.72,1.72 -0.95,0 -1.72,-0.77 -1.72,-1.72 0,-0.95 0.77,-1.72 1.72,-1.72z"/>
  <path class="fil1 str1" d="M17.69 109.89c0.95,0 1.72,0.77 1.72,1.72 0,0.95 -0.77,1.72 -1.72,1.72 -0.95,0 -1.72,-0.77 -1.72,-1.72 0,-0.95 0.77,-1.72 1.72,-1.72z"/>
  <path class="fil1 str1" d="M65.99 62.95c0.95,0 1.72,0.77 1.72,1.72 0,0.95 -0.77,1.73 -1.72,1.73 -0.95,0 -1.72,-0.77 -1.72,-1.73 0,-0.95 0.77,-1.72 1.72,-1.72z"/>
 </g>
</svg>
